<svg width="512" height="512" viewBox="0 0 512 512" fill="none" xmlns="http://www.w3.org/2000/svg">
  <rect width="512" height="512" rx="100" fill="url(#paint0_linear)" />
  <path d="M256 149C292.627 149 322 119.627 322 83H190C190 119.627 219.373 149 256 149Z" fill="white"/>
  <path d="M294 372C294 393.196 277.196 410 256 410C234.804 410 218 393.196 218 372C218 350.804 234.804 334 256 334C277.196 334 294 350.804 294 372Z" fill="white"/>
  <path d="M324 246H188C174.745 246 164 256.745 164 270V270C164 283.255 174.745 294 188 294H324C337.255 294 348 283.255 348 270V270C348 256.745 337.255 246 324 246Z" fill="white"/>
  <path d="M330.243 200.364L279.393 164.308C269.5 157.231 256.5 157.214 246.594 164.263L195.757 200.364C186.399 207.004 181 217.962 181 229.615V229.615C181 236.385 186.615 242 193.385 242H318.615C325.385 242 331 236.385 331 229.615V229.615C331 217.962 325.601 207.004 316.243 200.364Z" fill="white"/>
  <defs>
    <linearGradient id="paint0_linear" x1="0" y1="0" x2="512" y2="512" gradientUnits="userSpaceOnUse">
      <stop stop-color="#4A6CFF" />
      <stop offset="1" stop-color="#8A34EF" />
    </linearGradient>
  </defs>
</svg> 